<svg xmlns="http://www.w3.org/2000/svg" width="256" height="256"><path fill="#1976D2" fill-opacity=".016" fill-rule="evenodd" d="M0 128.004v128.004l128.25-.254 128.25-.254.254-127.75L257.008 0H0v128.004m.485.496c0 70.4.119 99.053.265 63.672.146-35.38.146-92.98 0-128C.604 29.153.485 58.1.485 128.5"/><path fill="#1976D2" fill-opacity=".187" fill-rule="evenodd" d="M41.527 3.957c-.372.601-.305.986.149.855 1.903-.547 5.465 2.379 4.849 3.984-.347.904-.314 1.326.073.939.85-.85 3.423 2.423 2.754 3.504-.98 1.587-2.323.624-4.866-3.489-3.98-6.437-2.027-.763 3.355 9.75 3.313 6.47 6.483 10.877 11.276 15.677l6.668 6.677-2.143 1.875c-1.178 1.031-4.71 3.804-7.849 6.161-3.138 2.357-8.82 7.564-12.626 11.571C18.674 87.246 7.996 122.535 13.501 159.5c4.691 31.494 23.025 60.097 50.233 78.367 12.633 8.483 34.507 16.71 47.399 17.828 11.761 1.02 35.041-4.422 48.466-11.33 29.731-15.299 48.539-40.774 56.007-75.865 1.205-5.662 1.688-12.53 1.651-23.5-.045-13.859-.368-16.73-3.042-27.115-1.646-6.388-4.846-15.571-7.113-20.407-2.266-4.837-4.003-8.909-3.861-9.051.142-.141 4.021-.97 8.619-1.842 10.618-2.013 19.796-2.018 25.7-.013 2.546.864 4.826 1.375 5.067 1.134.241-.24-.629-3.375-1.933-6.967-2.732-7.529-8.137-15.337-13.62-19.68-4.263-3.377-15.763-9.095-18.074-8.988-.825.039.1.659 2.055 1.379 10.08 3.714 18.888 10.354 23.585 17.78 3.539 5.594 2.859 5.457-1.901-.382-8.516-10.448-21.254-16.787-33.811-16.827-5.986-.019-16.716 2.525-15.553 3.687.266.266-.387 2.032-1.45 3.925l-1.933 3.441 2.09-1.118c1.149-.615 2.244-.963 2.433-.774.189.189-1.854 1.516-4.541 2.949-2.688 1.433-4.793 2.327-4.68 1.987.113-.34-.241-.795-.787-1.011-1.577-.624-6.833 9.059-6.872 12.66-.02 1.838-.494 3.104-1.085 2.895-3.017-1.068 2.163-13.777 9.075-22.262l4.366-5.361-5.085-4.019c-2.797-2.211-5.495-4.02-5.996-4.02-2.606 0-.05-3.043 6.3-7.5 7.749-5.44 13.122-11.968 19.672-23.903 4.948-9.016 5.256-10.98 1.498-9.552-1.44.548-4.815 1.046-7.5 1.106-2.684.061-4.88.502-4.88.98s-.477.869-1.059.869-.824-.381-.536-.846c.863-1.397-19.519-.119-24.905 1.562-7.537 2.352-13.647 5.726-17.105 9.445-4.897 5.266-9.62 12.796-12.124 19.328-1.577 4.116-2.107 4.907-1.679 2.511 1.279-7.16 7.03-18.605 11.24-22.371l2.092-1.87-2.207-1.787c-1.214-.983-2.559-1.57-2.989-1.304-1.448.895-9.089 17.774-11.241 24.832-1.892 6.205-2.439 7.036-4.816 7.317-1.591.188-2.833-.219-3.054-1-.204-.724-2.754-8.635-5.667-17.578l-5.297-16.262-2.076 1.884c-1.143 1.037-2.639 1.679-3.327 1.428-1.476-.538-1.696 1.317-.262 2.204 1.392.86 5.678 8.515 6.444 11.507.405 1.584-.083 1.11-1.33-1.293C99.537 17.916 90.376 9.981 81.28 6.938c-4.967-1.662-9.194-2.134-21-2.345-8.129-.145-15.522-.594-16.429-.997-.913-.406-1.95-.245-2.324.361m40.973.661c2.2.93 6.25 3.263 9 5.185 3.015 2.107 4.247 2.644 3.103 1.354-2.505-2.825-9.498-6.876-13.17-7.628-2.259-.463-2.014-.213 1.067 1.089m71.024 2.978c-2.187.801-4.399 1.879-4.916 2.396-.518.518 1.138.152 3.679-.813 2.542-.964 4.942-2.074 5.334-2.466.914-.914.672-.862-4.097.883m-9.965 4.936c-1.068.807-1.518 1.454-1 1.436.517-.017 1.815-.692 2.882-1.5 1.068-.807 1.518-1.454 1-1.436-.517.017-1.815.692-2.882 1.5M58 14.43c0 .275.9.981 2 1.57 1.1.589 2 .845 2 .57s-.9-.981-2-1.57c-1.1-.589-2-.845-2-.57m5 2.987c0 .298 1.718 1.419 3.817 2.49 2.099 1.071 4.404 2.655 5.122 3.52.718.865 1.756 1.573 2.306 1.573 1.885 0-1.155-2.633-6.228-5.394C65.258 18.104 63 17.119 63 17.417m2.848 35.364C50.352 63.266 37.872 77.56 30.462 93.309c-6.238 13.261-10.655 33.412-10.343 47.191.139 6.141.563 4.409 1.408-5.756.355-4.266 1.013-7.528 1.464-7.249.451.278 2.229-3.389 3.952-8.15 3.712-10.261 9.243-21.555 12.008-24.523 1.089-1.169 1.745-2.505 1.458-2.969-.287-.465.516-1.342 1.785-1.95 2.063-.989 11.915-11.759 15.704-17.167 1.325-1.892 1.3-2.026-.264-1.426-.949.364.386-1.784 2.967-4.773 2.581-2.99 5.339-5.684 6.128-5.986.997-.383 1.293-1.596.973-3.977-.407-3.017-.04-3.726 3.082-5.947 2.789-1.984 3.954-2.303 5.466-1.493 1.057.565 2.11.84 2.34.609.23-.23-.664-.911-1.987-1.514-2.128-.97-3.37-.444-10.755 4.552M171 57.378c0 .207.787.995 1.75 1.75 1.586 1.243 1.621 1.208.378-.378-1.307-1.666-2.128-2.195-2.128-1.372m-12.299 1.254c-.385.386-.701 1.558-.701 2.604 0 1.402.593 1.819 2.25 1.584 1.471-.209 2.25-1.008 2.25-2.306 0-1.984-2.472-3.208-3.799-1.882M79.956 64.96c-14.936 7.715-27.876 25.93-34.39 48.408-1.344 4.64-2.671 11.293-2.947 14.784-.277 3.492-.263 5.263.03 3.936.406-1.839.737-2.081 1.393-1.02.6.97 1.066.11 1.537-2.838.372-2.326 1.096-4.23 1.608-4.23s.673-.418.357-.928c-.315-.51.28-1.199 1.322-1.529 2.748-.873 11.885-11.012 13.582-15.072.797-1.909 1.714-3.471 2.036-3.471.323 0 .096 1.013-.504 2.25-2.007 4.142 1.226-.673 5.02-7.475 2.082-3.733 7.364-10.179 13.04-15.913 5.248-5.301 9.049-9.45 8.448-9.219-.713.274-.945-.85-.668-3.227.279-2.391-.047-3.945-.947-4.516-.998-.632-1.032-.874-.123-.885C89.438 64.007 90 63.55 90 63c0-1.811-4.409-.951-10.044 1.96m65.106 15.212c20.739 20.42 28.62 40.887 27.581 71.628-1.046 30.957-10.576 52.476-28.429 64.197-4.192 2.751-7.253 5.003-6.802 5.003 1.977 0 14.868-9.511 18.531-13.672 9.882-11.227 16.723-25.685 19.762-41.767 2.413-12.771 1.374-34.564-2.172-45.561-5.554-17.227-14.551-31.383-26.033-40.96-9.806-8.18-11.225-7.52-2.438 1.132m-27.837 10.919c-.124 6.375-.52 18.413-.881 26.75L115.688 133H105.24l-.62 6.25c-.34 3.438-.693 6.7-.784 7.25-.099.603-3.447.872-8.444.678l-8.28-.322-.388-3.678c-.327-3.106-.414-2.901-.557 1.322l-.17 5H104.5l.305 4.75.305 4.75h12.015l-.312 32.516c-.172 17.883.031 31.182.452 29.552.421-1.629.646-16.37.5-32.756l-.265-29.793-3-.641-3-.641 3.5-.282c2.808-.225 2.413-.397-2-.868l-5.5-.587-.286-9.75-.286-9.75 6.286-.079c3.457-.043 5.705-.312 4.994-.597-.738-.296-.952-1.013-.5-1.671.436-.634.556-13.078.267-27.653-.289-14.575-.626-21.284-.75-14.909m-24.708-5.023c-12.154 9.195-23.274 30.939-23.816 46.572-.167 4.808.096 5.851 1.549 6.148 1.237.253 1.75-.274 1.75-1.798 0-4.153 4.2-18.554 7.485-25.664 3.971-8.595 7.75-14.234 14.458-21.573 4.344-4.753 5.313-6.829 3.14-6.725-.32.015-2.375 1.383-4.566 3.04m2.475 8.441c-.944 1.138-1.004 1.879-.217 2.666 1.517 1.517 4.442.188 4.049-1.839-.449-2.316-2.27-2.709-3.832-.827M97.3 128c0 3.025.187 4.262.416 2.75.229-1.512.229-3.987 0-5.5s-.416-.275-.416 2.75m46.972-1c0 2.475.195 3.488.434 2.25.238-1.238.238-3.263 0-4.5-.239-1.237-.434-.225-.434 2.25m-18.522 9.577c-.412.416-.709 2.594-.66 4.84l.09 4.083.964-3.349c1.043-3.621.818-6.797-.394-5.574M20.81 153.5c.225 1.925.585 3.5.799 3.5.215 0 .391-1.575.391-3.5s-.36-3.5-.799-3.5c-.44 0-.616 1.575-.391 3.5m23.44-2.772c2.063.216 5.438.216 7.5 0 2.063-.215.375-.392-3.75-.392s-5.812.177-3.75.392m33.5 4.015c-8.661.381-8.942.708-6.055 7.039.933 2.045 2.037 4.618 2.454 5.718.418 1.1.502-1.037.189-4.75l-.571-6.75h5.557c3.057 0 5.836-.45 6.176-1 .34-.55.479-.909.309-.799-.17.111-3.796.355-8.059.542M97.158 167c0 1.375.227 1.938.504 1.25.278-.687.278-1.812 0-2.5-.277-.687-.504-.125-.504 1.25m-9.39 7.725c1.797.222 4.497.218 6-.01 1.503-.229.032-.411-3.268-.405-3.3.005-4.529.192-2.732.415m-38.071 32.373c-3 2.473-3.535 3.392-2.618 4.497.959 1.156 1.814.866 5.081-1.722 3.687-2.92 4.464-4.832 2.262-5.566-.525-.175-2.651 1.081-4.725 2.791m9.339 9.358c-1.916 2.309-.183 3.987 2.04 1.975 1.032-.934 1.636-2.088 1.341-2.565-.786-1.273-2.012-1.059-3.381.59m.423.611c-1.076 1.741.149 2.11 1.521.457.789-.95.865-1.524.201-1.524-.584 0-1.36.48-1.722 1.067m8.413 5.683c-1.226 1.564-1.196 1.612.281.458 1.35-1.055 1.747-1.055 2.171 0 .329.822.547.655.597-.458.043-.963-.316-1.75-.799-1.75-.482 0-1.495.787-2.25 1.75M133 222c-.825.533-1.05.969-.5.969s1.675-.436 2.5-.969c.825-.533 1.05-.969.5-.969s-1.675.436-2.5.969m-7.187 2.683c.721.289 1.584.253 1.916-.079.332-.332-.258-.568-1.312-.525-1.165.048-1.402.285-.604.604m-58.254 1.849c-1.068.807-1.46 1.468-.873 1.468.588 0 1.629-.675 2.314-1.5 1.557-1.876 1.067-1.866-1.441.032m51.691-.843c.963.252 2.537.252 3.5 0 .963-.251.175-.457-1.75-.457s-2.713.206-1.75.457m-43.643 3.893c-1.264 3.293-.746 4.563 1.393 3.418 2.268-1.214 2.728-5 .607-5-.766 0-1.666.712-2 1.582m1.06.085c-.367.366-.667 1.131-.667 1.7 0 .626.466.567 1.183-.15.651-.651.951-1.416.667-1.7-.284-.285-.817-.217-1.183.15m8 4c-.367.366-.667 1.524-.667 2.573 0 2.725 3.416 1.831 3.82-1 .307-2.157-1.612-3.115-3.153-1.573m11 3c-.367.366-.667 1.749-.667 3.073 0 3.361 3.44 2.656 3.664-.75.145-2.208.109-2.235-.32-.24-.666 3.1-2.693 2.858-2.099-.25.512-2.68.454-2.865-.578-1.833m10.583 2.995c-.687.278-1.205 1.705-1.15 3.171l.099 2.667.739-2.5c.407-1.375 1.295-2.376 1.975-2.225.68.151.951-.187.602-.75-.348-.564-.719-.989-.824-.946-.105.043-.753.306-1.441.583m19.018 3.755c.127 1.055.907 2.101 1.732 2.326.965.263 1.107.114.4-.417-.605-.454-1.385-1.501-1.732-2.326-.445-1.054-.564-.93-.4.417"/><path fill="#1976D2" fill-opacity=".642" fill-rule="evenodd" d="M56 12.038c.825.554 4.537 2.627 8.25 4.608 3.712 1.981 8.731 5.346 11.153 7.478 4.615 4.062 6.805 5.104 4.469 2.126-1.248-1.591-1.211-1.624.402-.357.976.765 1.538 1.629 1.249 1.918-.29.289 2.512 3.69 6.225 7.559l6.752 7.033-5.797 1.048c-3.188.577-6.113 1.499-6.5 2.049-.386.55-1.236 1.103-1.888 1.228-2.126.41-9.125-2.538-11.38-4.793l-2.202-2.202-1.497 2.383c-.824 1.311-4.615 4.634-8.425 7.384-16.861 12.168-32.24 34.267-39.201 56.33-1.445 4.582-3.391 14.196-4.324 21.365-1.605 12.342-1.602 13.78.07 27.062 3.685 29.269 13.808 49.972 33.964 69.461 10.702 10.347 18.373 15.785 29.883 21.185 8.281 3.885 24.959 9.384 32.034 10.561 4.45.74 22.329-1.733 32.552-4.504 26.612-7.212 50.468-27.089 63.097-52.57 9.467-19.102 12.634-34.379 11.859-57.208-.582-17.153-3.343-29.263-9.827-43.098-2.188-4.668-3.779-9.004-3.536-9.636.242-.633 5.336-1.937 11.319-2.9 8.323-1.339 12.328-1.531 17.05-.816 3.394.514 6.638.646 7.208.293 1.336-.825-2.91-9.453-6.675-13.565-1.531-1.672-2.446-2.594-2.034-2.05 1.086 1.433.921 2.814-.25 2.09-.55-.34-1-.119-1 .492 0 .61-1.463.012-3.25-1.329-12.797-9.604-29.122-12.056-40.816-6.13-2.714 1.376-4.934 2.649-4.934 2.83 0 .181 2.363-.486 5.25-1.484s6.375-1.812 7.75-1.81c1.748.002.996.546-2.5 1.808-6.558 2.367-10.841 4.624-12.445 6.557-1.116 1.344-.964 1.58 1.073 1.668 2.023.087 1.893.256-.878 1.145-3.969 1.273-4.234 2.744-.5 2.779 2.563.025 2.478.152-1.25 1.877l-4 1.851 3 1.201c2.595 1.039 9.176 2.834 16 4.364 1.1.247-.765.501-4.145.565-3.727.07-8.841-.714-13-1.993-10.941-3.365-10.555-2.911-8.256-9.718 1.082-3.205 3.003-7.338 4.269-9.185l2.301-3.358-4.085-3.106c-2.246-1.708-6.31-4.633-9.032-6.499l-4.947-3.393 2.697-.899c2.353-.785 3.704-.195 10.58 4.624l7.882 5.523 2.194-2.335 2.194-2.336-6.712-4.789-6.712-4.789 2.419-2.066c1.33-1.136 3.529-2.829 4.886-3.763 1.357-.933 1.953-1.721 1.326-1.75-.628-.028-3.203 1.652-5.723 3.734-3.336 2.757-5.61 3.831-8.359 3.949-11.485.495-19.982 1.206-21.527 1.803-3.965 1.532-1.183-1.82 8.393-10.112 11.046-9.565 20.563-15.464 33.205-20.578 4.483-1.814 7.429-3.443 6.546-3.619-2.355-.47-14.121 4.188-23.512 9.307-4.505 2.455-8.417 4.464-8.695 4.464-.278 0 .123-2.362.892-5.25 1.646-6.185 1.85-11.133.421-10.25-.55.34-1.026 2.054-1.058 3.809-.09 4.916-4.935 13.916-8.442 15.681-1.65.831-3.331 1.96-3.735 2.51-.404.55-.741-1.839-.75-5.309-.019-8.044-1.564-7.225-2.479 1.314-.661 6.179-.94 6.733-5.163 10.263-2.456 2.053-5.006 3.732-5.669 3.732-.662 0-2.015 1.35-3.006 3l-1.801 3 .482-5.061c.637-6.693 4.972-17.038 9.899-23.623 3.376-4.513 3.522-4.89.969-2.493-3.799 3.565-7.684 10.671-10.731 19.629-2.953 8.684-4.175 10.128-7.496 8.866-2.902-1.104-3.984-2.545-4.005-5.336-.008-1.11-1.051-3.585-2.316-5.5-1.266-1.915-2.987-5.282-3.825-7.482-1.802-4.73-6.813-12.894-7.496-12.212-.262.263.671 2.169 2.074 4.236 2.684 3.955 6.954 16.269 7.976 23 .686 4.515.012 3.42-3.397-5.524-1.153-3.025-1.917-4.247-1.696-2.715.22 1.531.164 2.548-.125 2.258-.289-.289-1.063-.08-1.719.465-1.828 1.517-9.873-4.606-8.964-6.824 1.503-3.668 2.578-8.365 2.172-9.494-.235-.654-.943.674-1.573 2.952-1.005 3.636-1.543 4.188-4.405 4.522l-3.261.381.237-7.023.237-7.022-1.261 4.5c-.891 3.18-1.834 4.575-3.217 4.756-3.224.421-4.645-1.256-5.195-6.132-.639-5.666-2.261-6.122-2.261-.636v3.987l-5.523-3.533c-5.112-3.27-13.754-7.462-15.31-7.427-.367.009.008.469.833 1.023M173.5 23c-1.436.617-.361.879 3.809.93 3.634.044 5.578-.304 5.191-.93-.742-1.2-6.207-1.2-9 0m-114.75.662c.688.278 1.813.278 2.5 0 .688-.277.125-.504-1.25-.504s-1.937.227-1.25.504M67.5 24c-2.964.754-2.954.765.809.882 2.31.071 3.566-.275 3.191-.882-.34-.55-.704-.947-.809-.882-.105.065-1.541.462-3.191.882m114.424 8.75L179.5 35.5l2.75-2.424c2.57-2.266 3.209-3.076 2.424-3.076-.179 0-1.416 1.238-2.75 2.75M66.5 36c-.751 1.216 9.215 1.254 15 .057 3.305-.683 2.404-.847-5.191-.942-5.18-.065-9.461.321-9.809.885m85.157.75c-.254.413 3.994.867 9.441 1.01 6.175.163 9.902-.119 9.902-.75 0-1.173-18.628-1.424-19.343-.26M143 44.019c-1.049.691.531.912 5.25.735 3.712-.14 6.75-.591 6.75-1.004 0-1.111-10.255-.881-12 .269m-77.5 8.572c-28.814 20.37-43.627 46.956-45.22 81.159L19.709 146H56l.007-5.75c.014-11.299 5.54-28.476 13.656-42.45C74.51 89.455 85.864 78.371 94 74.04c3.575-1.903 9.839-4.43 13.92-5.615 7.307-2.123 7.383-2.179 5-3.692-1.331-.845-3.995-1.861-5.92-2.257-1.925-.396-5.085-1.522-7.021-2.502-2.276-1.151-7.215-2.043-13.966-2.522-5.744-.407-11.579-1.044-12.966-1.415-2.424-.648-2.334-.785 2.295-3.497 4.874-2.857 4.897-3.05.658-5.459-1.07-.608-4.08.971-10.5 5.51m82.769-4.898c.973.254 2.323.237 3-.037.677-.274-.119-.481-1.769-.461-1.65.02-2.204.244-1.231.498m-6.019 1.996c.963.252 2.537.252 3.5 0 .963-.251.175-.457-1.75-.457s-2.713.206-1.75.457m-29.667 7.954c-.346.904-.394 1.879-.107 2.167.288.288.531-.114.539-.893.013-1.167.187-1.152.985.083.784 1.213.972 1.069.985-.75.018-2.618-1.484-2.998-2.402-.607m45.007 1.984c-.701 1.825.995 4.373 2.91 4.373s3.611-2.548 2.91-4.373c-.343-.895-1.653-1.627-2.91-1.627-1.257 0-2.567.732-2.91 1.627m-29.09 2.247c-2.2 1.023-4.857 2.821-5.905 3.993-1.882 2.107-1.878 2.133.25 2.133 1.185 0 3.003.787 4.039 1.75 1.036.963 4.685 3.317 8.109 5.233 21.028 11.763 34.888 35.126 37.515 63.237l.721 7.72-4.114.658c-5.12.818-5.316 1.912-.403 2.243 2.042.138 3.845.382 4.006.544.161.161-.177 4.877-.752 10.479-1.262 12.302-4.764 25.074-9.591 34.981-7.398 15.185-23.165 26.827-40.125 29.629l-4.25.702.003-14.338c.001-7.886.298-22.775.658-33.088l.655-18.75H127v-9h8.5c6.599 0 8.5-.312 8.5-1.393 0-2.017-2.28-2.607-10.082-2.607H127v-13h-3.933c-3.119 0-4.07-.435-4.6-2.104-.367-1.157-.341-11.472.057-22.923.693-19.88.038-36.868-1.366-35.464-.362.361-.883 14.007-1.158 30.324l-.5 29.667-5.5.5-5.5.5-.298 6.25-.297 6.25h-8.619c-10.34 0-10.713-.794-.512-1.092l7.226-.211v-3.783c0-5.131 1.612-9 4.012-9.627 1.916-.501 1.988-1.411 1.988-25.154V81.5h-4.794c-13.511 0-29.425 21.586-34.684 47.049-.885 4.281-1.378 8.384-1.096 9.117.37.965 2.827 1.334 8.876 1.334 4.601 0 8.552.186 8.781.412.23.227.268 3.602.085 7.5L84.836 154H78.04c-8.939 0-9.627.811-8.104 9.556 1.383 7.937 4.415 16.349 7.145 19.82 1.927 2.45 2.066 2.477 3.803.74.991-.991 4.135-2.641 6.987-3.667 3.356-1.207 5.009-2.319 4.688-3.156-.47-1.225 1.572-1.741 5.468-1.383.84.077 3.18-1.373 5.199-3.223l3.671-3.363.392 3.088c.215 1.698.463-.174.551-4.162.141-6.374-.057-7.25-1.64-7.25-2.709 0-4.2-2.023-4.2-5.7V152h-7.5c-4.333 0-7.5-.422-7.5-1 0-.588 3.5-1 8.5-1h8.5v9h12v65l-3.75-.015c-6.154-.024-16.244-2.838-22.182-6.186-3.063-1.726-8.842-6.477-12.843-10.557-12.122-12.36-19.398-29.611-20.875-49.492l-.649-8.75H19.77l.714 5.75c1.285 10.329 5.327 24.12 9.902 33.777 2.468 5.21 4.628 9.472 4.801 9.471.172-.001.426-1.689.565-3.75.435-6.469 1.976-8.942 5.976-9.591 1.971-.32 4.301-.162 5.178.35.877.513 1.144.953.594.978-.64.029-.628.31.033.78.568.404 2.92 3.945 5.225 7.869 4.302 7.319 6.29 8.998 8.915 7.529 1.607-.899 8.327 1.606 8.327 3.104 0 .468.419.592.932.275.512-.316 1.524.269 2.25 1.301 2.658 3.784 12.493 11.42 18.889 14.667 6.545 3.322 18.836 6.49 25.177 6.49 8.494 0 22.611-5.627 31.912-12.72 6.038-4.605 14.999-15.667 18.796-23.204 11.718-23.261 13.258-54.312 3.993-80.56-3.141-8.899-3.551-11.006-1.949-10.016 1.993 1.232.905-1.327-3.996-9.396-2.748-4.524-5.293-9.406-5.655-10.848-.362-1.443-1.261-3.778-1.997-5.189-.737-1.412-1.342-4.03-1.346-5.817-.011-5.981-5.178-8.777-18.006-9.747-5.009-.378-7.417-.064-10.5 1.371m77.597 8.509c-.889 1.071-.785 1.523.459 2 2.67 1.025 3.444.714 3.444-1.383 0-2.3-2.215-2.65-3.903-.617m-83.923 11.931c-2.106 2.243-2.174 3.055-2.174 26.131v23.817l3.25-.497c5.258-.805 5.75-.217 5.75 6.869v6.468l3.551-2.709c2.714-2.07 3.48-3.319 3.25-5.301-.278-2.39.05-2.631 4.199-3.092l4.5-.5.143-6c.078-3.3-.043-4.875-.27-3.5-.227 1.375-.649 3.963-.938 5.75l-.526 3.25h-6.448c-6.145 0-6.429-.106-6.029-2.25.231-1.238.453-3.937.494-6 .068-3.424.318-3.75 2.878-3.75 2.595 0 2.823-.318 3.048-4.25.152-2.641 1.237-5.689 2.868-8.052 1.757-2.546 2.769-5.548 3.063-9.089.399-4.822.157-5.608-2.754-8.923C136.175 86.296 127.785 80 125.79 80c-.793 0-2.42 1.042-3.616 2.314m10.433 14.268C131.593 99.225 131.909 100 134 100c1.1 0 2-.413 2-.918 0-1.644-1.195-4.082-2-4.082-.432 0-1.059.712-1.393 1.582m-41.264 25.152-5.157.364-.343 5.047c-.189 2.775-.118 5.178.157 5.339.275.162 2.862.061 5.75-.222l5.25-.516v-5.373c0-2.955-.112-5.29-.25-5.188-.138.102-2.571.349-5.407.549m16.324 14.933c-.367.366-.667 4.641-.667 9.5V155h8.383c9.72 0 9.58.162 9.603-11.114l.014-6.614-4.64-.636c-6.023-.826-11.851-.812-12.693.031M121.232 164c0 1.925.206 2.713.457 1.75.252-.963.252-2.537 0-3.5-.251-.963-.457-.175-.457 1.75M85 166.918c0 2.155-.273 4.63-.607 5.5-.513 1.336.342 1.582 5.5 1.582H96v-3.918c0-2.155.273-4.63.607-5.5.513-1.336-.342-1.582-5.5-1.582H85v3.918m59 2.534v4.453l-6.25.355-6.25.355 6.75.192c6.741.193 6.75.189 6.764-2.557.007-1.512.285-3.762.616-5 .362-1.35.157-2.25-.513-2.25-.655 0-1.117 1.841-1.117 4.452m51.459 9.615c-.363.586-.445 1.281-.183 1.543s.743-.218 1.069-1.067c.676-1.762.1-2.072-.886-.476M131 200.083c0 2.437 2.337 2.093 2.823-.416.192-.987-.318-1.667-1.25-1.667-.927 0-1.573.855-1.573 2.083m-81.421 6.264c-2.734 2.313-3.728 3.823-3.282 4.985.939 2.448 2.725 2.002 7.148-1.783 3.394-2.905 3.76-3.596 2.627-4.962-1.762-2.123-1.97-2.067-6.493 1.76m129-.693c-.429 1.118.428 2.563 2.643 4.459 3.905 3.342 4.14 3.388 5.906 1.137 1.248-1.592 1.212-1.624-.407-.353-1.562 1.226-2.078 1.117-4.219-.896-2.386-2.241-2.523-4.729-.183-3.325.673.403.59-.02-.191-.984-1.73-2.132-2.741-2.143-3.549-.038m-119.397 9.931c-2.179 1.526-2.937 4.83-1.335 5.82.466.288 2.058-.74 3.539-2.286 2.207-2.304 2.447-3.012 1.335-3.936-1.023-.848-1.895-.749-3.539.402M171 219.378c0 .757.694 1.953 1.542 2.657 1.901 1.578 4.029-.104 3.122-2.468-.741-1.931-4.664-2.09-4.664-.189m-103.891 3.21c-2.366 3.008-2.671 4.947-.945 6.013 1.471.909 6.047-4.273 5.637-6.383-.506-2.607-2.472-2.452-4.692.37m95.364 2.456c-.807 1.305 1.304 3.956 3.149 3.956.803 0 1.378-1.043 1.378-2.5 0-1.808-.537-2.5-1.941-2.5-1.068 0-2.231.47-2.586 1.044m-86.916 4.179c-2.109 3.01-1.958 4.777.408 4.777 2.032 0 4.035-2.697 4.035-5.434 0-2.299-2.647-1.907-4.443.657m77.807 2.27c-.346.903-.15 2.121.436 2.707 1.524 1.524 4.41.131 4.012-1.935-.443-2.302-3.647-2.858-4.448-.772m-69.406 2.585c-1.33 2.485-.6 4.922 1.475 4.922 1.633 0 3.567-2.947 3.567-5.434 0-2.302-3.739-1.922-5.042.512m58.718 2.325c-.296.771.078 2.234.832 3.25 1.281 1.727 1.48 1.738 3.068.175.933-.92 1.425-2.383 1.092-3.25-.75-1.956-4.262-2.078-4.992-.175m-48.292 1.039c-.895 2.332.01 5.01 1.81 5.357 1.986.382 4.051-2.996 3.195-5.227-.756-1.97-4.264-2.062-5.005-.13m10.845 2.729c-1.699 1.699-1.54 4.772.284 5.472 2.121.814 4.641-1.564 4.285-4.045-.348-2.426-2.803-3.193-4.569-1.427m19.877 1.631c-.748 1.397-.659 2.427.325 3.772 1.165 1.594 1.582 1.66 3.009.476 2.048-1.7 1.653-5.417-.623-5.85-.925-.176-2.145.544-2.711 1.602"/><path fill="#1976D2" fill-opacity=".644" fill-rule="evenodd" d="M77.15 19.595c-.102 2.106.569 3.704 2.1 5 2.232 1.89 2.237 1.889.584-.095-.917-1.1-1.862-3.35-2.101-5l-.433-3-.15 3.095m78.929-1.012c.048 1.165.285 1.402.604.605.289-.722.253-1.585-.079-1.917-.332-.332-.568.258-.525 1.312m-2.534 6.626c-.938 2.36-2.681 5.38-3.875 6.711l-2.17 2.419 2.724-1.919c2.585-1.822 6.652-9.877 5.546-10.984-.286-.285-1.287 1.412-2.225 3.773m12.205-2.637c-3.738 2.028-3.511 2.873.25.928 1.65-.853 3-1.765 3-2.026 0-.643-.107-.607-3.25 1.098m-79.939 3.279c-.45 1.565-1.117 2.102-1.994 1.609-.724-.408-.54.082.409 1.09 2.136 2.266 3.027 1.508 2.592-2.209-.319-2.737-.356-2.755-1.007-.49M141 31.633c0 3.832-.448 7.509-.996 8.171-.548.662-.244.544.675-.262 1.291-1.131 1.614-2.898 1.416-7.751-.351-8.603-1.095-8.71-1.095-.158m16.732-4.097C155.679 28.931 154 30.287 154 30.55c0 .263 1.8-.713 4-2.169 3.493-2.311 4.674-3.381 3.732-3.381-.147 0-1.947 1.141-4 2.536m-64.774 3.542c-.716 1.338-1.687 1.856-2.729 1.457-1.329-.511-1.288-.257.232 1.422 2.487 2.748.806 2.603-2.397-.207-1.41-1.237.628 1.125 4.529 5.25 7.311 7.73 9.803 11.271 8.705 12.369-1.103 1.103-12.658.593-16.331-.72-3.003-1.075-3.928-1.025-6.173.333l-2.64 1.598 2.673 1.11c1.47.611 5.373 1.341 8.673 1.622 4.133.353 7.711 1.468 11.5 3.582 3.025 1.688 6.407 3.078 7.515 3.088 1.108.01 3.694.918 5.746 2.018 3.924 2.103 9.218 2.653 10.203 1.059.845-1.367 15.854-8.533 17.036-8.134.55.186 5.772.453 11.605.594 5.833.14 11.609.793 12.836 1.449 4.887 2.616 2.745.064-3.161-3.766l-6.28-4.072-12.25.686c-6.738.378-12.25.628-12.25.555 0-.149 15.159-13.124 19-16.262 1.375-1.123 2.192-2.057 1.816-2.076-.843-.041-14.86 10.91-20.291 15.851-2.186 1.989-3.267 2.716-2.402 1.616 3.204-4.074 3.076-4.904-.27-1.75-1.897 1.788-3.704 3.25-4.016 3.25-.313 0-.218-1.913.21-4.25.429-2.337.663-4.368.521-4.512-.142-.143-1.335 2.451-2.652 5.766-1.576 3.969-2.842 5.855-3.707 5.523-.73-.28-1.03-.047-.677.525.35.566 1.543.742 2.651.39 1.745-.554 1.915-.326 1.27 1.705-1.004 3.163-3.43 4.891-6.453 4.597-2.168-.212-2.528-.775-2.712-4.244-.443-8.351-2.217-12.926-3.587-9.25-.274.733-3.236-1.748-7.165-6-3.684-3.987-7.203-7.25-7.82-7.25s.657 1.913 2.831 4.25l3.953 4.25-4.164-3.869-4.164-3.868 1.37-3.882c1.486-4.213 1.192-5.122-.584-1.803M78.25 35.689c.963.252 2.537.252 3.5 0 .963-.251.175-.457-1.75-.457s-2.713.206-1.75.457M59.49 47.797c-3.845 2.952-8.5 6.793-10.346 8.535C46.065 59.238 34 74.342 34 75.291c0 .225-2.406 4.414-5.347 9.309-4.72 7.857-11.021 22.131-12.309 27.883-7.803 34.851-1.72 68.303 17.356 95.45 5.986 8.519 20.548 22.749 29.08 28.418 8.483 5.637 21.129 11.534 32.72 15.258 7.941 2.551 10.353 2.876 20.5 2.764 25.481-.281 49.437-10.307 68.83-28.806 7.919-7.553 13.802-15.748 19.511-27.176 15.834-31.694 16.634-69.273 2.132-100.141L202.127 89h-4.147c-2.281 0-3.973.338-3.761.75C204.197 109.177 210 128.601 210 142.572V146h-16c-13.556 0-16 .229-16 1.5s2.453 1.5 16.08 1.5h16.079l-.667 6.75c-1.501 15.193-6.871 32.3-14.135 45.027-3.413 5.981-5.394 8.318-6.479 7.647-.47-.29-.619.086-.331.837s-.367 2.171-1.455 3.156c-1.918 1.735-2.104 1.687-6.017-1.563-4.577-3.801-4.573-3.791-2.688-6.368 1.341-1.835 1.511-1.806 5.25.885l3.863 2.782-4-3.562c-4.338-3.862-5.5-4.333-5.5-2.23 0 .913-.824 1.204-2.5.884-1.52-.291-2.5-.017-2.5.697 0 .647-.52.855-1.155.463-.712-.441-.883-.275-.445.433.389.63.248 1.937-.315 2.904-.615 1.056-1.036 1.24-1.055.463-.018-.801-.966-.419-2.482 1-3.621 3.39-5.393 4.795-6.046 4.795-.642 0-6.705 4.134-7.502 5.115-.275.339-1.459.914-2.631 1.28-1.172.365-3.154 1.551-4.403 2.635-1.25 1.083-3.048 1.97-3.997 1.97-.948 0-2.293.686-2.989 1.524-.696.838-1.497 1.292-1.78 1.009-.912-.911-3.202 1.652-2.529 2.83.357.625.286.808-.159.405-.445-.402-1.577.154-2.515 1.236-.939 1.082-3.459 2.378-5.602 2.881-6.178 1.45-.052 1.217 8.581-.327 7.58-1.355 12.024-.769 12.024 1.584 0 .655.289.902.643.549.353-.354.073-1.329-.623-2.167-1.042-1.256-.988-1.524.308-1.524.865 0 1.932.611 2.372 1.358.44.748 2.15 2.06 3.8 2.917l3 1.558-6.294 2.985c-14.378 6.816-25.092 7.767-27.054 2.4-.882-2.412-1.003-2.471-1.073-.527-.043 1.205.371 2.469.921 2.809 1.831 1.132 1.032 2.5-1.46 2.5-2.39 0-2.467-.232-2.75-8.25-.23-6.538-.601-8.25-1.79-8.25s-1.56 1.715-1.791 8.274l-.291 8.273-6.709-.617c-21.228-1.952-41.403-12.626-59.709-31.587C35.746 202.597 28.586 189.912 23.06 170c-1.145-4.125-2.367-10.537-2.715-14.25l-.632-6.75h17.643C52.373 149 55 148.777 55 147.5c0-1.278-2.667-1.5-18-1.5H19l.008-4.25c.04-20.746 6.889-44.712 17.492-61.211 5.281-8.216 18.297-21.022 28.626-28.163l8.626-5.964-3.636-1.991-3.636-1.992-6.99 5.368m88.76-4.108c.963.252 2.537.252 3.5 0 .963-.251.175-.457-1.75-.457s-2.713.206-1.75.457m-60 1c.963.252 2.537.252 3.5 0 .963-.251.175-.457-1.75-.457s-2.713.206-1.75.457m74.808 2.281-3.442 1.78 3.026 1.565c1.665.861 5.251 3.323 7.969 5.472l4.942 3.906 1.738-2.303c1.723-2.285 1.69-2.339-4.027-6.591-3.17-2.358-5.989-4.585-6.264-4.948-.275-.363-2.049.14-3.942 1.119M115 48.512c0 3.363 1.009 5.488 2.607 5.488.916 0 1.393-1.158 1.393-3.383 0-2.543-.497-3.514-2-3.907-1.576-.412-2-.03-2 1.802m87.75 14.15c.688.278 1.813.278 2.5 0 .688-.277.125-.504-1.25-.504s-1.937.227-1.25.504m12.006 3.002c.691.279 1.005.913.698 1.41-.307.497.214.607 1.158.245 1.115-.428 1.478-.273 1.036.442-.374.605-.154 1.426.49 1.824.774.478.902.288.377-.56-.529-.856-.33-1.13.596-.821.764.254 1.389.903 1.389 1.44 0 .538 1.8 2.505 4 4.372l4 3.394-2.937-3.205c-2.786-3.04-2.477-4.611.384-1.955.928.861 1.139.881.679.061-.762-1.356-10.916-7.352-12.248-7.232-.483.043-.313.307.378.585m-109.651 5.919c-15.868 4.267-29.158 17.265-38.642 37.791-4.294 9.293-7.447 22.139-7.456 30.376L59 146h4c2.889 0 4 .417 4 1.5 0 1.092-1.128 1.5-4.151 1.5h-4.151l.619 9.75c.744 11.72 3.451 21.963 8.672 32.804 7.148 14.845 24.545 28.488 40.285 31.593 3.175.626 6.1.812 6.5.414.994-.993 1.504-64.621.516-64.456-.435.073-3.152.079-6.04.013L104 159v-9l-8.75.139-8.75.14 8.25.96 8.25.961v3.2c0 3.585 1.512 5.6 4.2 5.6 2.105 0 2.232 3.963 1.136 35.343l-.659 18.842-2.951-.59c-3.754-.751-11.163-6.176-16.825-12.319-2.421-2.626-4.738-4.663-5.151-4.526-.412.138-.697-.088-.632-.5.318-2.013-.223-3.303-1.146-2.733-2.671 1.651-11.084-23.073-11.317-33.26L69.5 154.5l7.75-.292 7.75-.292V140h-7.066c-3.886 0-7.992-.496-9.125-1.102-1.839-.984-1.99-1.704-1.403-6.698.996-8.47 6.188-22.857 11.094-30.742 9.637-15.486 28.104-27.917 30.021-20.208.308 1.237.429 13.163.27 26.501l-.291 24.251 3.125-.001C115.887 132 116 131.13 116 98.458c0-20.897.293-27.41 1.25-27.796 2.91-1.174-7.208-.407-12.145.921m14.127 29.796.231 31.121.286-24.579.285-24.58 2.916-2.793 2.916-2.794 3.817 2.321c15.948 9.698 26.517 26.57 30.805 49.175.832 4.384 1.512 8.353 1.512 8.82 0 .467-3.713.98-8.25 1.14l-8.25.29-.302 5.25-.303 5.25h-16.78l-.308 4.25c-.299 4.143-.407 4.263-4.307 4.75l-4 .5-.264 32.664-.263 32.665 6.182-1.442c16.566-3.865 29.59-13.886 36.869-28.368 5.456-10.856 9.976-29.272 9.976-40.65V149h-4c-2.889 0-4-.417-4-1.5s1.111-1.5 4-1.5h4v-5.935c0-3.264-.653-9.001-1.45-12.75-4.383-20.596-13.554-36.002-27.831-46.747-7.95-5.984-12.478-8.21-19.292-9.483L119 70.258l.232 31.121M177.5 88.528c2.2.725 5.35 1.315 7 1.311 1.872-.004.745-.515-3-1.359-7.514-1.693-9.221-1.673-4 .048M132.638 97.5c-.389 1.015.051 1.5 1.362 1.5 1.311 0 1.751-.485 1.362-1.5-.317-.825-.93-1.5-1.362-1.5-.432 0-1.045.675-1.362 1.5M86 127.052v5.053l5.25-.303 5.25-.302.305-4.75.305-4.75H86v5.052m45 .579v5.631l3.75-.62c2.063-.341 4.762-.625 6-.631 2.032-.01 2.25-.496 2.25-5.011v-5h-12v5.631m-27.333 5.036c-.367.366-.667 3.081-.667 6.032 0 4.614-.315 5.5-2.25 6.323-2.217.944-2.214.955.25.718 2.34-.225 2.532-.673 3-6.991.275-3.713.463-6.75.417-6.75-.046.001-.384.301-.75.668m24.022 2.999c-.446 1.742-.509 4.779-.139 6.75l.673 3.584 8.138-.201 8.139-.201-7.703-.34-7.704-.34-.296-6.209c-.259-5.403-.402-5.798-1.108-3.043m-20.022 2.001c-1.067 1.067-.769 16.152.333 16.833.637.394 1-2.49 1-7.941V138h9.094l-.536 8.5-.535 8.5H124v-18h-7.833c-4.309 0-8.134.3-8.5.667m29.083 14.125-7.75.292v3.423c0 3.768-2.021 5.493-6.434 5.493H120v56.256l4.027-.644c9.384-1.501 26.23-22.165 27.198-33.362.06-.687.477-1.25.928-1.25 2.196 0 7.633-22.716 6.103-25.5-.366-.667-.191-.667.526 0 .591.55 1.26 2.575 1.487 4.5.394 3.358.417 3.329.571-.715.199-5.246-1.404-6.285-9.701-6.285-3.955 0-6.102-.425-6.316-1.25-.232-.897-2.51-1.168-8.073-.958m-46.5 12.01-5.25.303v10.174l5.136-.609c2.824-.334 5.326-.798 5.559-1.031.233-.233.284-2.385.114-4.782L95.5 163.5l-5.25.302m47.5-.063-5.75.361v9.9h12v-5.5c0-3.025-.113-5.415-.25-5.311-.137.104-2.838.352-6 .55m40.055 48c-2.253.514-1.156 3.261 1.302 3.261 1.041 0 1.893-.648 1.893-1.441 0-1.772-.975-2.327-3.195-1.82m-7.448 6.774c-.388 1.011.195 2.483 1.5 3.789 2.027 2.027 2.223 2.047 3.872.397 1.341-1.34 1.49-2.131.652-3.468-1.477-2.355-5.225-2.802-6.024-.718M139 223c-.901.582-1.025.975-.309.985.655.008 1.469-.435 1.809-.985.767-1.242.421-1.242-1.5 0m23 2.311c0 2.975 2.148 4.953 4.427 4.079 1.111-.427 1.578-1.535 1.377-3.268-.235-2.024-.932-2.694-3.054-2.938-2.336-.269-2.75.051-2.75 2.127M132 226c-.825.533-1.05.969-.5.969s1.675-.436 2.5-.969c.825-.533 1.05-.969.5-.969s-1.675.436-2.5.969m21.011 4.487c-2.59 3.121 1.802 7.128 4.669 4.261 1.937-1.937.86-5.748-1.625-5.748-.996 0-2.366.669-3.044 1.487m-11.344 5.18c-1.24 1.24-.677 4.08 1.083 5.461 1.585 1.243 1.621 1.207.382-.373-.752-.959-1.132-2.647-.844-3.75.56-2.14.439-2.399-.621-1.338m5.433 4.628c-1.265 2.107-1.243 2.128.479.479.991-.95 1.587-1.942 1.324-2.205-.263-.263-1.074.514-1.803 1.726"/></svg>